<svg xmlns="http://www.w3.org/2000/svg" width="24" height="24" viewBox="0 0 48 48">
  <path fill="#EA4335" d="M24 9.5c3.94 0 7.07 1.62 9.23 2.97l6.84-6.84C36.07 2.53 30.52 0 24 0 14.82 0 6.95 5.2 2.94 12.73l7.98 6.22C12.84 13.36 17.94 9.5 24 9.5z"/>
  <path fill="#34A853" d="M46.13 24.56c0-1.53-.14-3-.4-4.42H24v8.38h12.56c-.54 2.8-2.17 5.17-4.6 6.77l7.04 5.47c4.1-3.78 6.13-9.37 6.13-16.2z"/>
  <path fill="#4A90E2" d="M24 48c6.52 0 12.06-2.15 16.08-5.82l-7.04-5.47c-1.95 1.32-4.43 2.1-7.05 2.1-5.43 0-10.05-3.66-11.7-8.61l-7.98 6.22C6.95 42.8 14.82 48 24 48z"/>
  <path fill="#FBBC05" d="M12.3 30.2c-.45-1.32-.7-2.73-.7-4.2s.25-2.88.7-4.2l-7.98-6.22C3.12 18.25 2 21.03 2 24s1.12 5.75 3.32 8.42l6.98-2.22z"/>
</svg>
