<svg width="659" height="524" viewBox="0 0 659 524" fill="none" xmlns="http://www.w3.org/2000/svg">
<path d="M0 460.483H659V460.835H0V460.483Z" fill="#E6E6E6"/>
<path d="M494.487 481.763H538.139V482.115H494.487V481.763Z" fill="#E6E6E6"/>
<path d="M551.952 481.763H577.244V482.115H551.952V481.763Z" fill="#E6E6E6"/>
<path d="M381.495 486.939H406.788V487.291H381.495V486.939Z" fill="#E6E6E6"/>
<path d="M249.616 494.787H306.54V495.139H249.616V494.787Z" fill="#E6E6E6"/>
<path d="M318.271 494.787H326.614V495.139H318.271V494.787Z" fill="#E6E6E6"/>
<path d="M61.4847 486.939H184.955V487.291H61.4847V486.939Z" fill="#E6E6E6"/>
<path d="M346.634 397.754H601.127C603.12 397.75 605.031 396.902 606.44 395.397C607.848 393.891 608.639 391.85 608.639 389.723V7.9607C608.622 5.84539 607.823 3.8228 606.416 2.33226C605.01 0.841722 603.109 0.00362365 601.127 0H346.634C344.638 0 342.724 0.846124 341.312 2.35223C339.901 3.85834 339.108 5.90107 339.108 8.03103V389.723C339.108 391.853 339.901 393.896 341.312 395.402C342.724 396.908 344.638 397.754 346.634 397.754ZM601.127 0.281298C603.033 0.285024 604.86 1.09574 606.207 2.53551C607.553 3.97527 608.31 5.92643 608.31 7.9607V389.723C608.31 391.757 607.553 393.708 606.207 395.148C604.86 396.588 603.033 397.399 601.127 397.402H346.634C344.726 397.399 342.898 396.588 341.549 395.149C340.2 393.71 339.441 391.758 339.438 389.723V7.9607C339.441 5.92514 340.2 3.97401 341.549 2.53465C342.898 1.09529 344.726 0.285016 346.634 0.281298H601.127Z" fill="#E6E6E6"/>
<path d="M61.5374 397.754H316.043C318.038 397.75 319.95 396.903 321.361 395.398C322.771 393.892 323.565 391.852 323.569 389.723V7.9607C323.548 5.8441 322.747 3.82153 321.338 2.33138C319.929 0.841231 318.027 0.00358413 316.043 0H61.5374C59.5573 0.00732004 57.6598 0.847054 56.256 2.3372C54.8522 3.82734 54.0553 5.84782 54.038 7.9607V389.723C54.0379 391.848 54.8272 393.886 56.2329 395.392C57.6385 396.897 59.546 397.746 61.5374 397.754ZM316.043 0.281298C317.951 0.285016 319.779 1.09529 321.128 2.53465C322.477 3.97401 323.236 5.92514 323.239 7.9607V389.723C323.236 391.758 322.477 393.71 321.128 395.149C319.779 396.588 317.951 397.399 316.043 397.402H61.5374C59.6299 397.399 57.8015 396.588 56.4527 395.149C55.1039 393.71 54.3446 391.758 54.3411 389.723V7.9607C54.3446 5.92514 55.1039 3.97401 56.4527 2.53465C57.8015 1.09529 59.6299 0.285016 61.5374 0.281298H316.043Z" fill="#E6E6E6"/>
<path d="M306.567 340.341H335.55V463.029H306.567V340.341Z" fill="#E0E0E0"/>
<path d="M312.076 463.029H306.567V446.32H317.849L312.076 463.029Z" fill="#FAFAFA"/>
<path d="M433.569 340.341H462.552V463.029H433.569V340.341Z" fill="#E0E0E0"/>
<path d="M306.567 340.341H438.367V452.776H306.567V340.341Z" fill="#FAFAFA"/>
<path d="M311.351 345.869V375.616H433.622V345.869H311.391M310.877 345.32H434.096V376.15H310.837V345.32H310.877Z" fill="#E0E0E0"/>
<path d="M432.871 463.029H438.367V446.32H427.098L432.871 463.029Z" fill="#FAFAFA"/>
<path d="M375.38 360.735C375.38 361.35 375.209 361.951 374.889 362.462C374.569 362.973 374.114 363.372 373.581 363.607C373.049 363.842 372.464 363.904 371.899 363.784C371.334 363.664 370.815 363.368 370.407 362.933C370 362.498 369.722 361.945 369.61 361.342C369.498 360.739 369.555 360.114 369.776 359.546C369.996 358.978 370.37 358.492 370.849 358.151C371.328 357.809 371.891 357.627 372.467 357.627C373.239 357.627 373.98 357.954 374.526 358.537C375.073 359.12 375.38 359.911 375.38 360.735Z" fill="#E6E6E6"/>
<path d="M311.351 381.678V411.425H433.622V381.678H311.391M310.877 381.143H434.096V411.973H310.837V381.157L310.877 381.143Z" fill="#E0E0E0"/>
<path d="M375.38 396.629C375.38 397.243 375.209 397.844 374.889 398.356C374.569 398.867 374.114 399.265 373.581 399.5C373.049 399.736 372.464 399.797 371.899 399.677C371.334 399.557 370.815 399.261 370.407 398.827C370 398.392 369.722 397.838 369.61 397.235C369.498 396.632 369.555 396.007 369.776 395.439C369.996 394.871 370.37 394.386 370.849 394.044C371.328 393.703 371.891 393.52 372.467 393.52C373.239 393.52 373.98 393.848 374.526 394.431C375.073 395.014 375.38 395.804 375.38 396.629Z" fill="#E6E6E6"/>
<path d="M311.351 417.501V447.262H433.622V417.501H311.391M310.877 416.952H434.096V447.797H310.837V416.952H310.877Z" fill="#E0E0E0"/>
<path d="M375.38 432.382C375.377 432.996 375.204 433.595 374.882 434.105C374.561 434.614 374.105 435.01 373.572 435.243C373.04 435.476 372.455 435.536 371.89 435.414C371.326 435.293 370.809 434.996 370.403 434.56C369.996 434.125 369.72 433.571 369.609 432.969C369.498 432.366 369.556 431.742 369.777 431.175C369.998 430.608 370.371 430.123 370.85 429.782C371.329 429.441 371.891 429.259 372.467 429.259C372.85 429.259 373.23 429.34 373.584 429.497C373.939 429.654 374.26 429.884 374.531 430.175C374.802 430.465 375.016 430.809 375.162 431.188C375.307 431.566 375.381 431.972 375.38 432.382Z" fill="#E6E6E6"/>
<path d="M451.27 269.089H480.253V463.043H451.27V269.089Z" fill="#E0E0E0"/>
<path d="M456.779 463.029H451.27V446.32H462.539L456.779 463.029Z" fill="#FAFAFA"/>
<path d="M559.583 269.089H588.566V463.043H559.583V269.089Z" fill="#E0E0E0"/>
<path d="M451.27 269.089H564.394V452.79H451.27V269.089Z" fill="#FAFAFA"/>
<path d="M456.147 274.265V315.854H559.517V274.265H456.147ZM455.54 273.632H560.15V316.459H455.567V273.646L455.54 273.632Z" fill="#E0E0E0"/>
<path d="M456.147 320.932V431.242H505.387V320.932H456.147ZM455.54 320.285H505.98V431.889H455.54V320.285Z" fill="#E0E0E0"/>
<path d="M510.277 320.932V431.242H559.517V320.932H510.277ZM509.684 320.285H560.15V431.889H509.71V320.285H509.684Z" fill="#E0E0E0"/>
<path d="M558.885 463.029H564.394V446.32H553.112L558.885 463.029Z" fill="#FAFAFA"/>
<path d="M510.751 295.08C510.754 295.699 510.585 296.304 510.265 296.819C509.945 297.334 509.489 297.737 508.954 297.975C508.42 298.214 507.831 298.278 507.263 298.159C506.694 298.04 506.172 297.744 505.761 297.307C505.351 296.871 505.071 296.315 504.957 295.709C504.843 295.103 504.9 294.474 505.121 293.903C505.342 293.332 505.717 292.843 506.198 292.499C506.68 292.156 507.246 291.972 507.825 291.972C508.599 291.972 509.341 292.299 509.89 292.882C510.438 293.464 510.748 294.255 510.751 295.08Z" fill="#E6E6E6"/>
<path d="M500.313 373.464C500.313 374.082 500.141 374.686 499.819 375.2C499.497 375.714 499.039 376.114 498.503 376.35C497.968 376.586 497.379 376.647 496.811 376.525C496.243 376.404 495.722 376.105 495.313 375.667C494.905 375.229 494.627 374.671 494.515 374.064C494.404 373.458 494.464 372.829 494.687 372.259C494.911 371.689 495.288 371.202 495.771 370.861C496.254 370.519 496.821 370.339 497.4 370.341C497.784 370.341 498.163 370.422 498.518 370.579C498.872 370.737 499.194 370.967 499.464 371.257C499.735 371.547 499.949 371.891 500.095 372.27C500.24 372.649 500.315 373.054 500.313 373.464Z" fill="#E6E6E6"/>
<path d="M521.177 373.464C521.174 374.078 521.001 374.678 520.679 375.187C520.358 375.696 519.902 376.093 519.37 376.326C518.837 376.559 518.252 376.618 517.688 376.497C517.124 376.375 516.606 376.078 516.2 375.643C515.794 375.208 515.518 374.654 515.406 374.051C515.295 373.449 515.353 372.824 515.574 372.257C515.795 371.69 516.168 371.205 516.647 370.864C517.126 370.524 517.688 370.342 518.264 370.342C518.648 370.342 519.027 370.422 519.382 370.58C519.736 370.737 520.058 370.967 520.328 371.257C520.599 371.547 520.813 371.891 520.959 372.27C521.104 372.649 521.178 373.055 521.177 373.464Z" fill="#E6E6E6"/>
<path d="M524.472 215.009H536.69C535.564 221.334 534.855 227.735 534.568 234.166C534.568 241.198 543.873 269.089 530.614 269.089C517.355 269.089 526.66 241.268 526.66 234.166C526.351 227.733 525.62 221.332 524.472 215.009Z" fill="#E0E0E0"/>
<path d="M570.958 243.533V251.972C570.944 256.496 569.253 260.83 566.256 264.029C563.258 267.228 559.196 269.032 554.957 269.046H547.049C542.81 269.032 538.748 267.228 535.75 264.029C532.753 260.83 531.062 256.496 531.049 251.972V243.533H570.958Z" fill="#F5F5F5"/>
<path d="M401.107 322.451C401.107 332.296 390.787 340.341 378.174 340.341H366.786C354.173 340.341 343.853 332.296 343.853 322.451H401.107Z" fill="#E0E0E0"/>
<path d="M99.3641 308.02C106.27 314.04 115.813 325.053 124.538 340.552C130.363 350.876 133.869 361.649 135.411 375.967C135.411 359.793 135.319 342.423 135.266 326.023C133.513 321.804 129.507 312.071 126.633 304.391C117.052 278.751 113.453 272.436 104.847 250.326C93.3408 220.79 81.5579 185.825 84.932 188.624C91.8119 194.32 118.172 246.993 121.019 254.532C128.779 274.65 133.576 295.929 135.24 317.612C135.24 302.141 135.135 288.076 135.082 277.162C134.897 241.564 134.331 230.073 134.054 226.528C132.986 224.728 131.734 222.632 130.996 221.507C124.801 211.943 122.416 203.814 116.59 189.552C108.313 169.369 101.196 133.518 103.279 135.318C111.951 142.857 118.778 159.031 127.767 179.664C136.756 200.297 134.186 212.154 135.965 229.763C136.334 233.223 136.624 246.275 136.835 264.349C139.154 245.08 143.53 232.393 151.504 220.86C161.31 206.669 170.8 197.091 177.759 192.084C184.718 187.077 165.739 221.929 156.671 237.091C148.591 250.65 141.145 262.591 136.901 274.363C137.125 298.878 137.23 329.905 137.23 358.752C139.313 345.616 142.713 331.452 147.247 320.496C152.704 307.331 161.086 287.134 167.768 280.284C169.363 278.639 160.783 317.922 155.274 328.358C149.764 338.794 145.718 348.654 142.252 354.575C141.448 355.981 138.759 361.284 137.23 364.35C137.23 399.61 137.046 430.722 136.756 441.313H135.332C135.425 438.584 135.451 420.637 135.411 396.896C131.971 384.013 124.116 369.301 117.632 355.883C110.567 341.354 92.4578 302.043 99.3641 308.02Z" fill="#E0E0E0"/>
<path d="M115.404 463.029H156.71L159.834 419.822H112.28L115.404 463.029Z" fill="#F0F0F0"/>
<path d="M109.209 424.857H162.918L164.447 410.272H107.667L109.209 424.857Z" fill="#F5F5F5"/>
<path d="M495.225 28.8329H569.099V115.402H495.225V28.8329Z" fill="#E0E0E0"/>
<path d="M487.225 28.8329H563.537V115.402H487.225V28.8329Z" fill="#F5F5F5"/>
<path d="M493.617 108.581V35.6544L557.145 35.6544V108.581H493.617Z" fill="white"/>
<path d="M509.025 90.887V53.3198H541.751V90.887H509.025Z" fill="#F5F5F5"/>
<path d="M118.554 38.9175H187.182V119.34H118.554V38.9175Z" fill="#E0E0E0"/>
<path d="M111.121 38.9175H182.003V119.34H111.121V38.9175Z" fill="#F5F5F5"/>
<path d="M117.052 112.997V45.2607L176.058 45.2607V112.997H117.052Z" fill="white"/>
<path d="M146.562 98.7774C136.393 98.7774 128.149 89.9804 128.149 79.1288C128.149 68.2772 136.393 59.4802 146.562 59.4802C156.73 59.4802 164.974 68.2772 164.974 79.1288C164.974 89.9804 156.73 98.7774 146.562 98.7774Z" fill="#F5F5F5"/>
<path d="M418.478 80.4509H473.281V144.671H418.478V80.4509Z" fill="#E0E0E0"/>
<path d="M412.547 80.4509H469.155V144.671H412.547V80.4509Z" fill="#F5F5F5"/>
<path d="M417.292 139.608V85.5143H464.41V139.608H417.292Z" fill="white"/>
<path d="M440.845 98.8759L453.735 122.702H427.955L440.845 98.8759Z" fill="#F5F5F5"/>
<path d="M329.5 524C188.365 524 73.953 516.872 73.953 508.079C73.953 499.285 188.365 492.157 329.5 492.157C470.635 492.157 585.047 499.285 585.047 508.079C585.047 516.872 470.635 524 329.5 524Z" fill="#F5F5F5"/>
<path d="M198.688 152.505L211.763 146.879C211.763 146.879 229.016 180.452 233.958 182.154C240.68 184.461 254.598 190.874 262.849 191.999C263.969 193.406 265.801 197.78 265.63 199.369C254.545 203.322 230.189 198.075 224.969 193.94C213.094 184.559 198.688 152.505 198.688 152.505Z" fill="#E58A7B"/>
<path d="M194.669 144.868C192.23 154.474 205.437 173.799 205.437 173.799L222.742 163.448C222.742 163.448 219.5 155.501 215.546 147.414C209.206 134.347 197.45 133.911 194.669 144.868Z" fill="#CCA8D2"/>
<path opacity="0.2" d="M194.669 144.868C192.23 154.474 205.437 173.799 205.437 173.799L222.742 163.448C222.742 163.448 219.5 155.501 215.546 147.414C209.206 134.347 197.45 133.911 194.669 144.868Z" fill="black"/>
<path opacity="0.2" d="M215.875 167.583L209.061 171.662L207.862 149.341C211.829 152.59 214.623 162.379 215.875 167.583Z" fill="black"/>
<path d="M206.056 137.639C206.056 137.639 219.526 169.622 211.671 229.173H158.595C157.751 220.481 160.546 178.061 150.437 137.104C156.259 135.89 162.15 135.087 168.071 134.699C175.582 134.235 183.112 134.235 190.622 134.699C195.829 135.263 200.988 136.246 206.056 137.639Z" fill="#CCA8D2"/>
<path opacity="0.2" d="M206.056 137.639C206.056 137.639 219.526 169.622 211.671 229.173H158.595C157.751 220.481 160.546 178.061 150.437 137.104C156.259 135.89 162.15 135.087 168.071 134.699C175.582 134.235 183.112 134.235 190.622 134.699C195.829 135.263 200.988 136.246 206.056 137.639Z" fill="black"/>
<g style="mix-blend-mode:multiply">
<path d="M218.366 509.345C218.445 510.864 198.319 512.087 173.422 512.087C148.525 512.087 128.255 510.864 128.175 509.345C128.096 507.826 148.209 506.616 173.119 506.616C198.03 506.616 218.274 507.84 218.366 509.345Z" fill="#E8ECF1"/>
</g>
<path d="M182.938 469.432L192.351 473.321L184.242 495.675L174.829 491.787L182.938 469.432Z" fill="#E58A7B"/>
<path d="M140.96 498.529H150.885L154.522 474.014H144.598L140.96 498.529Z" fill="#E58A7B"/>
<path d="M151.57 497.305H140.42C140.226 497.306 140.039 497.379 139.892 497.513C139.745 497.647 139.647 497.833 139.616 498.036L138.179 507.446C138.149 507.682 138.167 507.922 138.231 508.15C138.295 508.378 138.405 508.589 138.553 508.768C138.7 508.946 138.882 509.089 139.086 509.186C139.29 509.283 139.511 509.333 139.734 509.33C143.622 509.26 145.494 509.007 150.397 509.007C153.415 509.007 159.623 509.344 163.814 509.344C168.005 509.344 168.282 504.956 166.556 504.548C158.806 502.762 155.801 500.329 153.218 497.966C152.762 497.539 152.176 497.304 151.57 497.305Z" fill="#263238"/>
<path d="M184.52 493.676L173.976 490.385C173.788 490.329 173.587 490.342 173.407 490.424C173.228 490.506 173.079 490.651 172.988 490.835L169.034 499.274C168.942 499.488 168.895 499.721 168.896 499.957C168.897 500.192 168.947 500.424 169.041 500.637C169.135 500.85 169.272 501.039 169.441 501.19C169.61 501.34 169.809 501.45 170.022 501.51C173.857 502.636 176.427 503.325 181.225 504.816C184.533 505.842 187.907 507.516 191.176 508.627C193.443 509.401 198.768 509.429 201.522 509.429C205.595 509.429 206.504 504.844 204.751 504.633C200.336 504.112 199.743 504.352 197.305 503.043C193.315 501.182 189.699 498.518 186.655 495.195C186.081 494.497 185.345 493.973 184.52 493.676Z" fill="#263238"/>
<path d="M261.188 191.943L272.101 187.062L276.595 199.974C272.122 200.701 267.572 200.701 263.099 199.974L261.188 191.943Z" fill="#E58A7B"/>
<path d="M280.22 186.725L280.51 195.305L276.595 199.946L272.101 187.034L280.22 186.725Z" fill="#E58A7B"/>
<path d="M181.646 471.331L191.089 475.221L186.907 486.781L177.464 482.89L181.646 471.331Z" fill="#CF6F64"/>
<path d="M144.598 474.014H154.522L152.638 486.658H142.713L144.598 474.014Z" fill="#CF6F64"/>
<path opacity="0.2" d="M213.358 213.068C213.16 215.614 212.936 218.216 212.646 220.889L173.185 207.217C167.023 205.268 161.667 201.136 158.002 195.501C157.844 191.746 157.646 187.794 157.343 183.673C157.211 181.676 157.053 179.622 156.882 177.541C156.71 175.459 156.473 173.152 156.223 170.93L213.358 213.068Z" fill="black"/>
<path d="M200.468 166.936L201.786 166.767C201.008 159.735 196.092 154.193 190.912 154.334V155.74C195.446 155.642 199.769 160.635 200.468 166.936Z" fill="white"/>
<path d="M193.443 179.918H193.667V178.511C189.133 178.694 184.876 173.645 184.177 167.358L182.859 167.526C183.558 174.404 188.316 179.918 193.443 179.918Z" fill="white"/>
<path d="M168.809 107.596C170.668 115.346 172.856 129.537 168.071 134.699C168.071 134.699 171.419 142.561 184.902 142.561C197.225 142.561 190.622 134.699 190.622 134.699C182.424 132.646 182.279 126.26 183.36 120.212L168.809 107.596Z" fill="#E58A7B"/>
<path d="M174.74 112.744L183.347 120.212C183.08 121.602 182.926 123.014 182.886 124.432C180.368 127.104 175.32 120.339 174.806 116.879C174.545 115.517 174.523 114.115 174.74 112.744Z" fill="#CF6F64"/>
<path d="M198.148 107.498C197.549 108.605 196.743 109.569 195.779 110.329C194.815 111.089 193.715 111.629 192.547 111.914C189.383 112.66 187.802 109.551 188.672 106.429C189.449 103.616 192.046 99.8324 195.262 100.479C195.951 100.631 196.595 100.956 197.142 101.428C197.689 101.9 198.122 102.505 198.404 103.193C198.687 103.88 198.811 104.629 198.767 105.378C198.722 106.127 198.51 106.854 198.148 107.498Z" fill="#CF6F64"/>
<path d="M192.916 82.7014C197.845 85.1065 199.585 106.007 193.39 109.101C187.196 112.195 183.584 78.1303 192.916 82.7014Z" fill="#263238"/>
<path d="M167.307 95.9364C168.493 106.429 168.625 112.603 173.897 117.976C175.531 119.759 177.594 121.025 179.86 121.636C182.126 122.246 184.505 122.176 186.736 121.434C188.967 120.692 190.962 119.306 192.502 117.43C194.041 115.554 195.065 113.261 195.459 110.803C197.054 101.379 194.853 85.8097 184.994 81.6324C182.923 80.6574 180.645 80.2914 178.396 80.5723C176.148 80.8533 174.011 81.7709 172.206 83.23C170.402 84.6892 168.996 86.6369 168.135 88.871C167.273 91.1052 166.987 93.5446 167.307 95.9364Z" fill="#E58A7B"/>
<path d="M183.505 88.1304C176.203 86.1473 170.839 84.7971 172.763 91.2809C175.307 99.9449 178.365 108.328 174.266 108.707C171.762 108.946 160.691 103.939 162.101 98.8619C163.327 94.4455 158.147 93.236 157.224 90.9996C153.811 82.8983 163.577 83.9672 161.837 79.0445C160.097 74.1218 169.745 66.1893 175.017 70.1415C183.597 76.5269 198.319 76.4285 190.583 65.922C185.034 58.4255 194.932 59.9585 194.932 59.9585C194.932 59.9585 188.948 63.742 199.018 69.593C209.667 75.8377 199.901 92.6171 183.505 88.1304Z" fill="#263238"/>
<path d="M163.432 107.498C164.873 109.724 167.039 111.298 169.508 111.914C172.763 112.66 174.015 109.551 172.79 106.429C171.696 103.616 168.691 99.8324 165.58 100.479C162.47 101.126 161.758 104.741 163.432 107.498Z" fill="#E58A7B"/>
<path d="M211.671 229.173C211.671 229.173 220.58 314.265 221.279 346.558C221.991 380.145 191.084 484.942 191.084 484.942L175.268 477.91C175.268 477.91 193.72 382.156 191.084 349.174C188.289 313.21 176.744 229.229 176.744 229.229L211.671 229.173Z" fill="#CCA8D2"/>
<path opacity="0.2" d="M189.528 252.534C196.632 268.259 191.848 299.356 188 317.781C186.537 304.771 184.797 290.65 183.149 277.584C183.307 257.499 184.77 241.986 189.528 252.534Z" fill="black"/>
<path d="M175.966 472.34C175.887 472.34 174.095 477.713 174.095 477.713L192.336 485.898L195.209 480.188L175.966 472.34Z" fill="#CCA8D2"/>
<path d="M192.837 229.173C192.837 229.173 186.023 310.102 181.515 340.412C176.559 373.619 157.132 484.211 157.132 484.211H138.957C138.957 484.211 149.843 376.305 151.9 343.422C154.14 307.753 158.595 229.173 158.595 229.173H192.837Z" fill="#CCA8D2"/>
<path d="M138.68 479.161C138.601 479.161 138.074 484.576 138.074 484.576H158.055L159.478 478.36L138.68 479.161Z" fill="#CCA8D2"/>
<path opacity="0.2" d="M145.639 472.748C145.68 472.748 145.72 472.733 145.752 472.705C145.783 472.676 145.804 472.637 145.81 472.593C145.916 471.609 155.735 374.139 157.58 344.603C159.583 312.563 163.617 241.494 163.656 240.776C163.658 240.753 163.655 240.729 163.648 240.707C163.641 240.685 163.63 240.665 163.615 240.648C163.6 240.63 163.582 240.617 163.562 240.607C163.542 240.598 163.52 240.593 163.498 240.593C163.455 240.593 163.413 240.611 163.381 240.642C163.349 240.673 163.33 240.716 163.327 240.762C163.327 241.479 159.254 312.493 157.251 344.589C155.405 374.125 145.586 471.524 145.494 472.579C145.49 472.602 145.491 472.626 145.497 472.649C145.502 472.672 145.512 472.693 145.526 472.712C145.539 472.73 145.556 472.746 145.576 472.757C145.595 472.768 145.617 472.774 145.639 472.776V472.748Z" fill="black"/>
<path d="M182.385 98.8618C182.385 99.7198 182.886 100.409 183.413 100.409C183.94 100.409 184.322 99.7198 184.27 98.8618C184.217 98.0039 183.769 97.3147 183.242 97.3147C182.714 97.3147 182.332 98.0179 182.385 98.8618Z" fill="#263238"/>
<path d="M191.426 98.8618C191.426 99.7198 191.94 100.409 192.454 100.409C192.968 100.409 193.364 99.7198 193.324 98.8618C193.285 98.0039 192.81 97.3147 192.283 97.3147C191.756 97.3147 191.374 98.0179 191.426 98.8618Z" fill="#263238"/>
<path d="M188.579 99.2979C189.68 101.918 191.098 104.372 192.797 106.598C191.479 108.004 189.014 107.357 189.014 107.357L188.579 99.2979Z" fill="#DF5753"/>
<path d="M188.342 110.944C188.373 110.944 188.403 110.937 188.431 110.924C188.459 110.911 188.484 110.892 188.505 110.869C188.526 110.845 188.543 110.817 188.553 110.786C188.564 110.756 188.568 110.723 188.566 110.69C188.563 110.622 188.535 110.558 188.488 110.51C188.442 110.463 188.38 110.437 188.316 110.437C187.308 110.445 186.311 110.211 185.399 109.753C184.486 109.296 183.682 108.626 183.044 107.793C182.998 107.75 182.94 107.727 182.879 107.727C182.819 107.727 182.76 107.75 182.714 107.793C182.672 107.84 182.648 107.903 182.648 107.969C182.648 108.034 182.672 108.097 182.714 108.145C183.397 109.03 184.257 109.741 185.231 110.225C186.205 110.709 187.268 110.955 188.342 110.944Z" fill="#263238"/>
<path d="M180.777 96.2739C180.84 96.3085 180.91 96.3265 180.981 96.3265C181.052 96.3265 181.122 96.3085 181.185 96.2739C181.678 95.9338 182.24 95.7222 182.823 95.6562C183.407 95.5903 183.997 95.6718 184.546 95.8942C184.6 95.9227 184.658 95.9396 184.718 95.9437C184.778 95.9478 184.837 95.9391 184.894 95.9181C184.95 95.8972 185.002 95.8643 185.047 95.8216C185.091 95.7788 185.127 95.727 185.153 95.6692C185.202 95.544 185.203 95.4034 185.156 95.2773C185.109 95.1512 185.018 95.0496 184.902 94.994C184.213 94.6937 183.466 94.5753 182.725 94.6487C181.984 94.7222 181.27 94.9854 180.645 95.416C180.595 95.4526 180.551 95.4996 180.518 95.5543C180.485 95.6089 180.462 95.67 180.451 95.7341C180.44 95.7982 180.441 95.8641 180.454 95.9277C180.467 95.9914 180.491 96.0517 180.526 96.1052C180.593 96.1858 180.68 96.2444 180.777 96.2739Z" fill="#263238"/>
<path d="M194.919 93.461C194.989 93.4428 195.053 93.4038 195.103 93.3485C195.147 93.3026 195.182 93.2479 195.206 93.1875C195.23 93.1271 195.242 93.0623 195.242 92.9968C195.242 92.9313 195.23 92.8665 195.206 92.8061C195.182 92.7457 195.147 92.691 195.103 92.6452C194.598 92.0406 193.969 91.5686 193.265 91.2661C192.561 90.9636 191.801 90.8387 191.044 90.9012C190.983 90.9111 190.925 90.9343 190.873 90.9692C190.822 91.0041 190.777 91.05 190.742 91.1041C190.708 91.1581 190.684 91.2192 190.672 91.2835C190.661 91.3478 190.662 91.4139 190.675 91.4778C190.703 91.6081 190.775 91.7228 190.877 91.8005C190.979 91.8782 191.104 91.9135 191.229 91.8998C191.827 91.8595 192.427 91.9652 192.982 92.2089C193.537 92.4526 194.032 92.8278 194.431 93.3062C194.491 93.3774 194.569 93.4296 194.655 93.4569C194.741 93.4841 194.832 93.4856 194.919 93.461Z" fill="#263238"/>
<path d="M145.336 150.944L159.043 147.048C159.043 147.048 172.487 182.365 177.245 184.657C183.703 187.808 200.059 198.722 207.018 203.884C207.4 205.642 207.097 210.298 206.227 211.578C194.365 209.271 171.656 199.946 166.912 195.206C156.091 184.39 145.336 150.944 145.336 150.944Z" fill="#E58A7B"/>
<path d="M154.905 499.161C155.573 499.218 156.24 499.024 156.789 498.613C156.959 498.449 157.086 498.241 157.158 498.01C157.229 497.778 157.243 497.53 157.198 497.291C157.19 497.141 157.144 496.997 157.065 496.873C156.986 496.75 156.877 496.651 156.75 496.588C155.643 495.983 152.545 498.078 152.189 498.318C152.15 498.343 152.12 498.382 152.104 498.428C152.087 498.473 152.085 498.524 152.097 498.571C152.108 498.62 152.131 498.665 152.164 498.702C152.196 498.739 152.237 498.766 152.282 498.782C153.141 499.007 154.02 499.134 154.905 499.161ZM156.223 496.967C156.322 496.944 156.426 496.944 156.526 496.967C156.576 496.995 156.618 497.037 156.646 497.09C156.674 497.142 156.687 497.202 156.684 497.263C156.719 497.426 156.713 497.597 156.667 497.758C156.621 497.918 156.536 498.063 156.42 498.177C155.906 498.669 154.615 498.725 152.914 498.374C153.927 497.662 155.067 497.183 156.262 496.967H156.223Z" fill="#CCA8D2"/>
<path d="M152.348 498.782C152.382 498.794 152.419 498.794 152.453 498.782C153.442 498.191 155.3 495.87 155.023 494.689C154.982 494.502 154.883 494.335 154.742 494.215C154.601 494.095 154.426 494.029 154.246 494.028C154.069 494.003 153.889 494.019 153.718 494.074C153.548 494.13 153.39 494.225 153.257 494.351C152.163 495.35 152.097 498.416 152.097 498.571C152.091 498.617 152.099 498.664 152.121 498.705C152.142 498.746 152.176 498.778 152.216 498.796C152.26 498.805 152.306 498.801 152.348 498.782ZM154.114 494.492H154.206C154.509 494.492 154.549 494.675 154.562 494.745C154.72 495.434 153.547 497.192 152.572 498.022C152.576 496.834 152.921 495.676 153.56 494.703C153.713 494.561 153.911 494.485 154.114 494.492Z" fill="#CCA8D2"/>
<path d="M189.897 497.403C190.704 497.704 191.582 497.704 192.388 497.403C192.572 497.298 192.727 497.144 192.84 496.957C192.953 496.771 193.02 496.556 193.034 496.335C193.051 496.195 193.034 496.054 192.986 495.924C192.937 495.793 192.859 495.678 192.757 495.589C191.703 494.576 187.393 495.589 186.906 495.786C186.859 495.799 186.818 495.828 186.789 495.869C186.761 495.91 186.746 495.96 186.747 496.011C186.745 496.064 186.758 496.116 186.784 496.161C186.81 496.206 186.847 496.242 186.892 496.264C187.863 496.732 188.868 497.113 189.897 497.403ZM192.046 495.73C192.196 495.762 192.337 495.835 192.454 495.941C192.496 495.974 192.529 496.02 192.547 496.072C192.566 496.124 192.57 496.181 192.56 496.236C192.551 496.384 192.508 496.527 192.434 496.652C192.361 496.777 192.259 496.881 192.138 496.953C191.439 497.347 189.818 497.038 187.723 496.095C189.134 495.716 190.596 495.592 192.046 495.73Z" fill="#CCA8D2"/>
<path d="M186.932 496.264H187.037C188.355 496.011 190.991 494.394 191.07 493.184C191.07 492.903 190.952 492.509 190.319 492.284C190.105 492.203 189.879 492.168 189.652 492.183C189.426 492.197 189.204 492.26 189.001 492.368C187.578 493.114 186.826 495.814 186.787 495.941C186.778 495.983 186.779 496.028 186.79 496.069C186.802 496.111 186.823 496.149 186.853 496.18C186.872 496.214 186.9 496.243 186.932 496.264ZM190.056 492.706H190.187C190.596 492.86 190.596 493.043 190.596 493.1C190.596 493.831 188.685 495.167 187.354 495.617C187.66 494.488 188.309 493.498 189.199 492.804C189.463 492.661 189.768 492.626 190.056 492.706Z" fill="#CCA8D2"/>
<path d="M205.898 203.054L219.645 209.805L221.24 214.025L216.165 217.668C216.165 217.668 206.676 216.571 203.974 210.059L205.898 203.054Z" fill="#E58A7B"/>
<path d="M205.318 211.817C205.625 208.998 206.497 206.283 207.875 203.856L205.7 202.112C204.064 204.908 203.021 208.053 202.643 211.324L205.318 211.817Z" fill="#263238"/>
<path d="M202.972 205.051C202.681 205.539 202.539 206.111 202.563 206.688C202.588 207.266 202.778 207.821 203.109 208.279C203.44 208.736 203.895 209.074 204.412 209.246C204.929 209.418 205.483 209.416 205.999 209.24C206.515 209.064 206.968 208.723 207.295 208.263C207.623 207.802 207.81 207.246 207.83 206.668C207.851 206.09 207.705 205.52 207.411 205.035C207.117 204.549 206.69 204.172 206.188 203.954C205.625 203.648 204.971 203.592 204.368 203.797C203.766 204.002 203.264 204.453 202.972 205.051Z" fill="#263238"/>
<path d="M228.937 215.263L227.105 217.232L214.768 211.606L219.645 209.805L228.937 215.263Z" fill="#E58A7B"/>
<path opacity="0.2" d="M175.966 472.34C175.887 472.34 174.095 477.713 174.095 477.713L192.336 485.898L195.209 480.188L175.966 472.34Z" fill="black"/>
<path opacity="0.2" d="M138.68 479.161C138.601 479.161 138.074 484.576 138.074 484.576H158.055L159.478 478.36L138.68 479.161Z" fill="black"/>
<path d="M141.764 146.893C138.14 159.369 152.308 176.43 152.308 176.43L171.88 167.906C169.561 160.696 166.886 153.62 163.867 146.711C157.857 132.885 145.428 134.305 141.764 146.893Z" fill="#CCA8D2"/>
<path opacity="0.2" d="M141.764 146.893C138.14 159.369 152.308 176.43 152.308 176.43L171.88 167.906C169.561 160.696 166.886 153.62 163.867 146.711C157.857 132.885 145.428 134.305 141.764 146.893Z" fill="black"/>
<path d="M336.248 21.8989H344.67V23.3476H336.248V21.8989Z" fill="#CCA8D2"/>
<path d="M227.226 79.2363L228.245 103.375L226.889 103.44L225.869 79.3015L227.226 79.2363Z" fill="#CCA8D2"/>
<path d="M229.846 28.3969H385.37L399.842 373.998H244.318L229.846 28.3969Z" fill="#CCA8D2"/>
<path opacity="0.56" d="M234.485 33.1509H390.009L404.481 378.752H248.957L234.485 33.1509Z" fill="#FAFAFA"/>
<path opacity="0.07" d="M239.125 37.8906H394.649L409.134 383.492H253.61L239.125 37.8906Z" fill="#CCA8D2"/>
<path d="M256.825 188.624H389.574L390.682 215.066H257.933L256.825 188.624Z" fill="white"/>
<path d="M316.57 169.327H388.77L389.258 181.155H317.058L316.57 169.327Z" fill="#CCA8D2"/>
<path d="M259.817 259.989H392.566L393.673 286.431H260.924L259.817 259.989Z" fill="white"/>
<path opacity="0.47" d="M284.161 322.141H373.429L374.76 353.829H285.492L284.161 322.141Z" fill="#CCA8D2"/>
<path d="M290.131 358.752H379.399C379.438 358.763 379.479 358.763 379.518 358.752C379.531 358.711 379.531 358.667 379.518 358.625L378.2 326.923C378.2 326.902 378.196 326.88 378.188 326.861C378.18 326.841 378.168 326.823 378.153 326.809C378.138 326.794 378.121 326.783 378.101 326.776C378.082 326.769 378.062 326.767 378.042 326.769H288.774C288.757 326.76 288.739 326.755 288.721 326.755C288.703 326.755 288.685 326.76 288.668 326.769C288.659 326.786 288.654 326.805 288.654 326.825C288.654 326.845 288.659 326.864 288.668 326.881L289.96 358.654C289.976 358.687 290.001 358.714 290.031 358.731C290.062 358.749 290.097 358.756 290.131 358.752ZM379.241 358.414H290.289L288.971 327.05H377.923L379.241 358.414Z" fill="white"/>
<path d="M332.162 240.692H391.762L392.25 252.534H332.663L332.162 240.692Z" fill="#CCA8D2"/>
<path d="M285.861 103.208C286.202 110.903 288.766 118.297 293.202 124.375C296.486 128.966 300.712 132.693 305.556 135.27C310.399 137.847 315.732 139.206 321.144 139.242C325.517 139.277 329.851 138.357 333.879 136.538C337.907 134.718 341.543 132.038 344.563 128.662C347.583 125.286 349.924 121.286 351.44 116.909C352.957 112.531 353.618 107.868 353.382 103.208C352.919 93.5368 349.01 84.4201 342.457 77.722C335.903 71.024 327.2 67.2506 318.126 67.1736C313.749 67.13 309.41 68.0447 305.378 69.8611C301.345 71.6775 297.704 74.3571 294.681 77.7342C291.657 81.1113 289.314 85.1142 287.797 89.4956C286.28 93.877 285.621 98.5439 285.861 103.208Z" fill="white"/>
<path d="M282.685 74.7124C282.771 76.7586 283.452 78.7252 284.635 80.3384C285.51 81.5577 286.635 82.5477 287.923 83.2326C289.212 83.9175 290.63 84.2794 292.069 84.2906C293.463 84.2996 294.839 83.9441 296.075 83.2552C297.311 82.5663 298.37 81.5648 299.16 80.3384C300.205 78.6811 300.723 76.7083 300.636 74.7124C300.508 72.1448 299.468 69.7257 297.727 67.9485C295.985 66.1712 293.674 65.1698 291.265 65.1483C290.102 65.137 288.95 65.3798 287.879 65.8617C286.808 66.3437 285.841 67.0546 285.037 67.9506C284.233 68.8467 283.61 69.9089 283.205 71.0718C282.801 72.2347 282.623 73.4737 282.685 74.7124Z" fill="#CCA8D2"/>
<path d="M375.274 201.845C375.337 202.978 375.801 204.044 376.572 204.827C377.342 205.61 378.362 206.052 379.426 206.064C379.94 206.071 380.449 205.965 380.923 205.753C381.397 205.541 381.825 205.227 382.18 204.832C382.536 204.436 382.812 203.967 382.991 203.453C383.17 202.94 383.249 202.392 383.222 201.845C383.165 200.709 382.703 199.639 381.931 198.855C381.159 198.071 380.136 197.631 379.07 197.625C378.557 197.621 378.048 197.728 377.575 197.941C377.102 198.153 376.675 198.467 376.32 198.862C375.964 199.257 375.688 199.725 375.509 200.238C375.329 200.751 375.249 201.298 375.274 201.845Z" fill="#263238"/>
<path d="M357.507 201.845C357.568 202.979 358.03 204.047 358.801 204.83C359.573 205.614 360.594 206.055 361.659 206.064C362.172 206.069 362.68 205.961 363.152 205.748C363.624 205.536 364.051 205.222 364.405 204.827C364.759 204.431 365.034 203.963 365.212 203.45C365.391 202.937 365.469 202.391 365.442 201.845C365.385 200.711 364.925 199.644 364.156 198.86C363.387 198.076 362.367 197.634 361.303 197.625C360.79 197.619 360.28 197.725 359.806 197.937C359.333 198.149 358.905 198.462 358.549 198.857C358.193 199.253 357.917 199.722 357.738 200.236C357.559 200.75 357.48 201.297 357.507 201.845Z" fill="#263238"/>
<path d="M339.728 201.845C339.788 202.979 340.251 204.047 341.022 204.83C341.793 205.614 342.815 206.055 343.879 206.064C344.393 206.069 344.901 205.961 345.374 205.749C345.847 205.536 346.274 205.222 346.63 204.827C346.985 204.432 347.261 203.964 347.441 203.451C347.621 202.938 347.7 202.392 347.675 201.845C347.615 200.71 347.152 199.643 346.381 198.859C345.61 198.075 344.588 197.634 343.524 197.625C343.01 197.619 342.5 197.725 342.027 197.937C341.553 198.149 341.125 198.462 340.769 198.857C340.413 199.253 340.137 199.722 339.958 200.236C339.779 200.75 339.701 201.297 339.728 201.845Z" fill="#263238"/>
<path d="M378.266 273.21C378.329 274.343 378.793 275.409 379.563 276.192C380.334 276.975 381.354 277.417 382.418 277.429C382.931 277.434 383.439 277.326 383.912 277.114C384.385 276.901 384.812 276.588 385.168 276.192C385.523 275.797 385.799 275.329 385.979 274.816C386.159 274.303 386.239 273.757 386.214 273.21C386.153 272.075 385.691 271.008 384.92 270.224C384.148 269.44 383.127 268.999 382.062 268.99C381.549 268.986 381.04 269.093 380.567 269.306C380.094 269.518 379.667 269.832 379.312 270.227C378.956 270.622 378.68 271.09 378.5 271.603C378.321 272.116 378.241 272.663 378.266 273.21Z" fill="#263238"/>
<path d="M360.499 273.21C360.559 274.342 361.02 275.407 361.789 276.191C362.557 276.974 363.575 277.417 364.638 277.429C365.152 277.436 365.661 277.33 366.135 277.118C366.609 276.906 367.037 276.592 367.392 276.197C367.748 275.801 368.024 275.332 368.203 274.819C368.382 274.305 368.461 273.757 368.434 273.21C368.373 272.075 367.911 271.008 367.14 270.224C366.369 269.44 365.347 268.999 364.282 268.99C363.769 268.986 363.261 269.093 362.789 269.306C362.317 269.519 361.891 269.832 361.536 270.228C361.182 270.623 360.907 271.091 360.729 271.604C360.55 272.117 360.472 272.663 360.499 273.21Z" fill="#263238"/>
<path d="M342.68 273.21C342.74 274.344 343.203 275.412 343.974 276.195C344.745 276.979 345.767 277.42 346.832 277.429C347.344 277.432 347.852 277.323 348.324 277.109C348.796 276.896 349.223 276.583 349.578 276.188C349.933 275.793 350.209 275.326 350.389 274.814C350.57 274.302 350.651 273.756 350.628 273.21C350.564 272.076 350.101 271.011 349.33 270.228C348.56 269.445 347.54 269.002 346.476 268.99C345.962 268.984 345.453 269.09 344.979 269.302C344.505 269.513 344.077 269.827 343.721 270.222C343.366 270.618 343.09 271.087 342.91 271.601C342.731 272.115 342.653 272.662 342.68 273.21Z" fill="#263238"/>
<path d="M324.94 273.21C325.003 274.343 325.467 275.409 326.237 276.192C327.008 276.975 328.027 277.417 329.091 277.429C329.604 277.432 330.112 277.323 330.584 277.11C331.056 276.896 331.482 276.583 331.837 276.188C332.192 275.793 332.468 275.326 332.649 274.814C332.829 274.302 332.91 273.756 332.887 273.21C332.824 272.076 332.36 271.011 331.59 270.228C330.819 269.445 329.799 269.002 328.736 268.99C328.222 268.986 327.714 269.093 327.241 269.306C326.768 269.518 326.341 269.832 325.985 270.227C325.63 270.622 325.354 271.09 325.174 271.603C324.994 272.116 324.915 272.663 324.94 273.21Z" fill="#263238"/>
<path d="M307.094 273.21C307.157 274.343 307.621 275.409 308.391 276.192C309.162 276.975 310.182 277.417 311.246 277.429C311.759 277.436 312.269 277.33 312.743 277.118C313.216 276.906 313.644 276.592 314 276.197C314.356 275.801 314.632 275.332 314.811 274.819C314.99 274.305 315.069 273.757 315.042 273.21C314.981 272.075 314.519 271.008 313.748 270.224C312.976 269.44 311.955 268.999 310.89 268.99C310.377 268.986 309.868 269.093 309.395 269.306C308.922 269.518 308.495 269.832 308.14 270.227C307.784 270.622 307.508 271.09 307.328 271.603C307.149 272.116 307.069 272.663 307.094 273.21Z" fill="#263238"/>
<path d="M309.791 101.331C304.275 95.5743 303.982 86.3468 309.138 80.7209C314.293 75.0951 322.944 75.2012 328.461 80.9581C333.977 86.7149 334.27 95.9424 329.115 101.568C323.959 107.194 315.308 107.088 309.791 101.331Z" fill="#CCA8D2"/>
<path d="M293.202 124.375C296.486 128.966 300.712 132.693 305.556 135.271C310.399 137.848 315.732 139.206 321.144 139.242C326.392 139.289 331.571 137.958 336.223 135.366C340.875 132.773 344.858 128.999 347.82 124.375C341.415 117.568 331.279 113.124 320.05 113.124C308.821 113.124 299.041 117.568 293.202 124.375Z" fill="#CCA8D2"/>
<path opacity="0.1" d="M309.791 101.331C304.275 95.5743 303.982 86.3468 309.138 80.7209C314.293 75.0951 322.944 75.2012 328.461 80.9581C333.977 86.7149 334.27 95.9424 329.115 101.568C323.959 107.194 315.308 107.088 309.791 101.331Z" fill="white"/>
<path opacity="0.1" d="M293.202 124.375C296.486 128.966 300.712 132.693 305.556 135.271C310.399 137.848 315.732 139.206 321.144 139.242C326.392 139.289 331.571 137.958 336.223 135.366C340.875 132.773 344.858 128.999 347.82 124.375C341.415 117.568 331.279 113.124 320.05 113.124C308.821 113.124 299.041 117.568 293.202 124.375Z" fill="white"/>
<path d="M487.12 221.437C488.372 224.362 489.69 227.583 490.836 230.706C491.983 233.828 493.156 237.049 494.171 240.256C496.243 246.576 497.821 253.068 498.889 259.665L499.179 261.733C499.207 262.087 499.176 262.445 499.087 262.788C498.776 263.953 498.286 265.056 497.637 266.051C495.945 268.626 493.981 270.985 491.785 273.083C489.47 275.381 487.042 277.546 484.51 279.567C481.979 281.649 479.317 283.674 476.694 285.587L479.159 290.523C485.422 287.611 491.366 283.975 496.886 279.68C499.831 277.388 502.488 274.703 504.794 271.691C506.161 269.898 507.226 267.866 507.944 265.685C508.361 264.323 508.575 262.899 508.577 261.466C508.577 261.128 508.577 260.636 508.577 260.397V259.707L508.445 258.301C507.689 250.973 506.245 243.745 504.135 236.725C503.107 233.266 502.013 229.82 500.761 226.458C499.509 223.097 498.217 219.805 496.622 216.388L487.12 221.437Z" fill="#E58A7B"/>
<path d="M478.553 284.715L469.234 279.68L471.646 290.594C471.646 290.594 478.039 292.507 481.004 289.187L478.553 284.715Z" fill="#E58A7B"/>
<path d="M460.707 281.466L463.185 290.495L471.646 290.594L469.234 279.68L460.707 281.466Z" fill="#E58A7B"/>
<path d="M447.553 168.778C447.055 170.727 446.361 172.614 445.484 174.404C445.74 174.714 446.07 174.945 446.439 175.071C446.808 175.197 447.202 175.215 447.58 175.121L447.553 168.778Z" fill="#DF5753"/>
<path d="M447.83 168.863C447.284 168.863 446.841 168.138 446.841 167.245C446.841 166.352 447.284 165.628 447.83 165.628C448.376 165.628 448.818 166.352 448.818 167.245C448.818 168.138 448.376 168.863 447.83 168.863Z" fill="#263238"/>
<path d="M448.12 165.684L446.117 165.079C446.117 165.079 447.092 166.739 448.12 165.684Z" fill="#263238"/>
<path d="M473.294 179.102C472.094 185.642 470.895 197.639 475.192 202.013C475.192 202.013 473.505 208.652 462.104 208.652C449.57 208.652 456.12 202.013 456.12 202.013C462.961 200.269 462.789 194.854 461.59 189.763L473.294 179.102Z" fill="#E58A7B"/>
<path d="M476.628 164.193C475.996 175.121 475.943 179.763 470.776 185.375C462.987 193.814 450.545 190.607 448.107 179.749C445.906 169.903 447.303 153.701 457.333 149.355C459.534 148.387 461.931 148.034 464.296 148.33C466.661 148.627 468.916 149.562 470.848 151.047C472.779 152.533 474.324 154.52 475.336 156.82C476.347 159.12 476.792 161.658 476.628 164.193Z" fill="#E58A7B"/>
<path d="M475.613 151.9C480.754 153.898 487.607 152.407 484.919 169.327C482.072 187.245 486.447 193.139 486.447 193.139C486.447 193.139 466.954 197.569 447.052 192.871C447.052 192.871 453.128 181.535 451.428 173.181C449.253 162.632 450.967 158.736 450.967 158.736C450.967 158.736 468.391 149.087 475.613 151.9Z" fill="#263238"/>
<path d="M453.866 169.889C453.861 171.967 453.304 174.001 452.258 175.754C450.861 178.033 449.214 177.161 448.805 174.742C448.436 172.618 448.713 168.863 450.492 167.4C452.272 165.937 453.84 167.372 453.866 169.889Z" fill="#E58A7B"/>
<path d="M480.081 153.743C481.558 149.312 474.52 142.491 459.626 145.304C444.733 148.117 444.087 161.352 444.087 161.352L447.092 157.526L446.96 161.549L462.262 164.685L480.081 153.743Z" fill="#263238"/>
<path d="M478.816 202.759C478.904 202.117 478.754 201.463 478.397 200.938C478.04 200.412 477.504 200.057 476.905 199.946C472.266 199.13 461.722 197.471 456.423 198.258C452.469 198.849 451.441 201.296 451.27 203.307C451.243 203.66 451.287 204.014 451.399 204.346C451.512 204.679 451.689 204.982 451.92 205.235C452.151 205.488 452.43 205.686 452.739 205.814C453.047 205.943 453.378 205.999 453.708 205.98L476.615 204.883C477.155 204.854 477.669 204.626 478.07 204.239C478.471 203.852 478.735 203.329 478.816 202.759Z" fill="#CCA8D2"/>
<path opacity="0.6" d="M478.816 202.759C478.904 202.117 478.754 201.463 478.397 200.938C478.04 200.412 477.504 200.057 476.905 199.946C472.266 199.13 461.722 197.471 456.423 198.258C452.469 198.849 451.441 201.296 451.27 203.307C451.243 203.66 451.287 204.014 451.399 204.346C451.512 204.679 451.689 204.982 451.92 205.235C452.151 205.488 452.43 205.686 452.739 205.814C453.047 205.943 453.378 205.999 453.708 205.98L476.615 204.883C477.155 204.854 477.669 204.626 478.07 204.239C478.471 203.852 478.735 203.329 478.816 202.759Z" fill="black"/>
<path d="M465.57 448.472L457.069 454.773L442.848 434.196L451.349 427.909L465.57 448.472Z" fill="#E58A7B"/>
<path d="M485.393 448.064L476.417 453.521L463.831 431.763L472.806 426.306L485.393 448.064Z" fill="#E58A7B"/>
<path d="M442.861 434.196L450.189 444.801L458.69 438.514L451.362 427.909L442.861 434.196Z" fill="#CF6F64"/>
<path d="M472.819 426.306L463.831 431.777L470.315 442.987L479.304 437.515L472.819 426.306Z" fill="#CF6F64"/>
<path d="M458.4 271.452C458.4 271.452 425.213 316.079 431.447 358.766C436.469 393.239 465.597 439.92 465.597 439.92L479.291 432.663C469.638 412.023 461.401 390.664 454.644 368.752C452.56 361.95 451.952 354.731 452.865 347.64C453.779 340.55 456.19 333.774 459.916 327.824C476.734 301.621 503.674 317.219 485.551 271.452H458.4Z" fill="#CCA8D2"/>
<path opacity="0.6" d="M458.4 271.452C458.4 271.452 425.213 316.079 431.447 358.766C436.469 393.239 465.597 439.92 465.597 439.92L479.291 432.663C469.638 412.023 461.401 390.664 454.644 368.752C452.56 361.95 451.952 354.731 452.865 347.64C453.779 340.55 456.19 333.774 459.916 327.824C476.734 301.621 503.674 317.219 485.551 271.452H458.4Z" fill="black"/>
<path opacity="0.4" d="M442.123 300.116L446.947 294.996C446.947 295.404 437.602 356.966 434.98 374.266C433.432 369.212 432.247 364.04 431.434 358.794C428.35 337.852 434.795 316.459 442.123 300.116Z" fill="black"/>
<path d="M443.586 271.452C443.586 271.452 403.624 327.542 402.491 361.171C401.555 389.301 445.985 443.802 445.985 443.802L458.901 434.885C458.901 434.885 432.897 396.179 426.347 364.561C428.877 333.224 482.388 271.452 482.388 271.452H443.586Z" fill="#CCA8D2"/>
<path opacity="0.6" d="M443.586 271.452C443.586 271.452 403.624 327.542 402.491 361.171C401.555 389.301 445.985 443.802 445.985 443.802L458.901 434.885C458.901 434.885 432.897 396.179 426.347 364.561C428.877 333.224 482.388 271.452 482.388 271.452H443.586Z" fill="black"/>
<path d="M493.024 204.517C497.295 205.6 501.394 222.168 501.394 222.168L484.694 234.067C484.694 234.067 479.132 220.959 481.083 215.22C483.1 209.243 487.66 203.153 493.024 204.517Z" fill="#CCA8D2"/>
<path opacity="0.2" d="M489.756 215.192L490.915 229.637L484.708 234.081C482.994 229.963 481.724 225.65 480.925 221.226L489.756 215.192Z" fill="black"/>
<path d="M438.644 204.84C438.644 204.84 433.714 206.683 443.586 271.438H485.578C484.866 253.153 484.853 241.901 493.024 204.517C487.145 203.224 481.185 202.387 475.192 202.013C468.843 201.528 462.469 201.528 456.12 202.013C447.922 202.815 438.644 204.84 438.644 204.84Z" fill="#CCA8D2"/>
<path d="M434.373 215.192C433.424 218.005 432.423 221.029 431.368 223.941C430.314 226.852 429.312 229.848 428.245 232.801L425.015 241.634L424.198 243.842L423.777 244.939L423.579 245.488C423.579 245.586 423.579 245.586 423.579 245.572C423.82 245.21 424.135 244.912 424.501 244.7C425.023 244.373 425.611 244.185 426.215 244.152C426.717 244.135 427.216 244.236 427.678 244.447C428.284 244.742 428.284 244.869 428.271 244.855C428.161 244.761 428.064 244.652 427.981 244.532C427.251 243.509 426.62 242.411 426.096 241.254C425.477 239.96 424.884 238.582 424.291 237.19C423.131 234.377 422.063 231.465 420.996 228.526C419.928 225.586 418.913 222.618 417.925 219.623L414.92 210.649L409.845 212.056C410.847 218.469 412.139 224.714 413.694 231.071C414.445 234.236 415.328 237.373 416.33 240.537C416.831 242.126 417.384 243.702 418.017 245.319C418.676 247.075 419.488 248.76 420.442 250.354C420.793 250.891 421.18 251.399 421.602 251.873C422.275 252.649 423.092 253.267 424.001 253.688C424.807 254.057 425.681 254.23 426.558 254.194C427.54 254.155 428.497 253.85 429.338 253.308C430.331 252.647 431.156 251.733 431.737 250.65C431.935 250.284 432.106 249.918 432.225 249.651L432.475 249.117L432.976 248.02L433.978 245.84C435.296 242.914 436.614 239.96 437.761 236.993C438.907 234.025 440.12 231.015 441.253 227.991C442.387 224.967 443.402 221.943 444.364 218.68L434.373 215.192Z" fill="#E58A7B"/>
<path d="M438.644 204.84C433.596 206.12 427.915 222.042 427.915 222.042L442.927 235.671C442.927 235.671 452.641 218.315 450.677 212.59C448.634 206.627 445.234 203.167 438.644 204.84Z" fill="#CCA8D2"/>
<path d="M412.534 205.614L407.262 200.916L403.598 207.006L406.3 212.084C406.3 212.084 410.596 216.303 414.392 214.151C414.995 212.706 415.139 211.091 414.804 209.55C414.469 208.01 413.672 206.628 412.534 205.614Z" fill="#E58A7B"/>
<path d="M397.746 200.93L398.141 202.464L406.484 203.954L407.302 200.916L397.746 200.93Z" fill="#E58A7B"/>
<path d="M444.957 444.52L460.008 434.14L457.306 429.133L440.397 440.23L444.957 444.52Z" fill="#CCA8D2"/>
<path d="M470.526 452.79C471.847 452.617 473.115 452.137 474.243 451.383C474.289 451.366 474.33 451.334 474.358 451.291C474.387 451.248 474.402 451.197 474.402 451.144C474.402 451.092 474.387 451.04 474.358 450.997C474.33 450.955 474.289 450.922 474.243 450.905C473.834 450.764 470.289 449.597 469.261 450.497C469.145 450.6 469.057 450.733 469.006 450.884C468.955 451.035 468.943 451.197 468.971 451.355C468.989 451.608 469.068 451.852 469.199 452.064C469.331 452.276 469.511 452.448 469.722 452.565C469.969 452.708 470.245 452.786 470.526 452.79ZM473.491 451.243C471.844 452.143 470.526 452.466 469.893 452.129C469.756 452.047 469.64 451.929 469.557 451.787C469.474 451.644 469.426 451.481 469.419 451.313C469.419 451.088 469.419 450.989 469.537 450.933C470.091 450.455 472.068 450.821 473.518 451.243H473.491Z" fill="#263238"/>
<path d="M474.15 451.482C474.22 451.481 474.286 451.45 474.335 451.397C474.355 451.358 474.365 451.315 474.365 451.271C474.365 451.226 474.355 451.183 474.335 451.144C474.335 451.017 473.478 447.965 472.134 447.276C471.962 447.193 471.776 447.149 471.587 447.149C471.398 447.149 471.212 447.193 471.04 447.276C470.855 447.339 470.695 447.465 470.585 447.636C470.475 447.807 470.422 448.012 470.434 448.219C470.526 449.484 472.938 451.228 474.045 451.524L474.15 451.482ZM471.594 447.642C471.722 447.646 471.848 447.68 471.963 447.74C472.78 448.162 473.452 449.808 473.781 450.806C472.622 450.286 471.027 448.908 470.974 448.134C470.974 448.008 470.974 447.853 471.277 447.712C471.376 447.656 471.483 447.618 471.594 447.6V447.642Z" fill="#263238"/>
<path d="M451.718 458.866C453.207 458.866 455.277 456.826 456.41 455.575C456.439 455.532 456.455 455.48 456.455 455.427C456.455 455.374 456.439 455.322 456.41 455.279C456.384 455.234 456.347 455.197 456.303 455.172C456.259 455.147 456.21 455.136 456.16 455.139C455.633 455.139 451.059 455.87 450.413 457.248C450.345 457.372 450.309 457.513 450.309 457.656C450.309 457.8 450.345 457.941 450.413 458.064C450.51 458.279 450.656 458.464 450.839 458.601C451.021 458.739 451.233 458.825 451.455 458.852L451.718 458.866ZM455.54 455.771C453.88 457.487 452.417 458.444 451.586 458.331C451.441 458.311 451.302 458.253 451.183 458.162C451.063 458.071 450.967 457.951 450.901 457.811C450.871 457.763 450.856 457.707 450.856 457.649C450.856 457.592 450.871 457.535 450.901 457.487C451.244 456.728 453.682 456.081 455.54 455.771Z" fill="#263238"/>
<path d="M455.395 455.701C455.691 455.71 455.987 455.687 456.278 455.631C456.319 455.624 456.357 455.607 456.39 455.579C456.422 455.552 456.447 455.517 456.463 455.476C456.483 455.435 456.493 455.389 456.493 455.342C456.493 455.296 456.483 455.25 456.463 455.209C456.384 455.11 454.605 452.818 452.917 452.663C452.44 452.623 451.967 452.785 451.599 453.113C451.085 453.591 451.112 454.013 451.244 454.281C451.573 455.237 453.853 455.701 455.395 455.701ZM455.738 455.181C454.262 455.265 451.903 454.745 451.599 454.056C451.599 454.056 451.494 453.831 451.837 453.521C451.973 453.395 452.132 453.299 452.305 453.241C452.477 453.183 452.659 453.163 452.838 453.184C453.975 453.522 454.987 454.224 455.738 455.195V455.181Z" fill="#263238"/>
<path d="M473.795 449.963L484.971 446.587C485.164 446.525 485.371 446.541 485.554 446.631C485.736 446.722 485.881 446.882 485.96 447.079L489.729 456.123C489.818 456.355 489.859 456.604 489.851 456.854C489.843 457.104 489.785 457.349 489.682 457.573C489.579 457.798 489.432 457.997 489.252 458.156C489.071 458.316 488.861 458.433 488.635 458.5C484.681 459.597 482.783 459.906 477.867 461.411C474.836 462.312 470.513 463.985 466.335 465.251C462.157 466.517 460.76 462.171 462.381 461.243C469.709 457.108 470.289 454.21 472.292 451.116C472.651 450.556 473.183 450.147 473.795 449.963Z" fill="#CCA8D2"/>
<path d="M456.107 453.929L465.649 446.897C465.811 446.771 466.011 446.713 466.21 446.733C466.409 446.754 466.594 446.852 466.73 447.009L473.057 454.267C473.211 454.454 473.326 454.675 473.394 454.913C473.462 455.152 473.482 455.403 473.452 455.651C473.422 455.898 473.343 456.136 473.22 456.348C473.098 456.561 472.934 456.743 472.74 456.883C469.379 459.288 467.64 460.258 463.435 463.366C460.799 465.279 455.699 469.527 452.14 472.171C448.581 474.815 445.932 471.187 447.197 469.752C452.865 463.296 454.104 459.245 455.04 455.575C455.202 454.909 455.58 454.326 456.107 453.929Z" fill="#CCA8D2"/>
<path d="M463.844 440.849L481.044 431.721L479.264 426.742L460.891 436.362L463.844 440.849Z" fill="#CCA8D2"/>
<path d="M486.21 268.807L487.66 272.858C487.805 273.168 487.462 273.491 486.975 273.491H443.375C442.993 273.491 442.677 273.294 442.65 273.041L442.281 269.018C442.281 268.751 442.584 268.512 442.993 268.512H485.525C485.653 268.499 485.782 268.519 485.901 268.571C486.02 268.622 486.126 268.703 486.21 268.807Z" fill="#CCA8D2"/>
<path opacity="0.4" d="M486.21 268.807L487.66 272.858C487.805 273.168 487.462 273.491 486.975 273.491H443.375C442.993 273.491 442.677 273.294 442.65 273.041L442.281 269.018C442.281 268.751 442.584 268.512 442.993 268.512H485.525C485.653 268.499 485.782 268.519 485.901 268.571C486.02 268.622 486.126 268.703 486.21 268.807Z" fill="white"/>
<path d="M479.343 273.885H480.49C480.714 273.885 480.885 273.758 480.872 273.603L480.332 268.385C480.332 268.245 480.121 268.118 479.897 268.118H478.75C478.526 268.118 478.355 268.245 478.368 268.385L478.908 273.603C478.922 273.758 479.119 273.885 479.343 273.885Z" fill="#CCA8D2"/>
<path d="M452.456 273.885H453.59C453.814 273.885 453.985 273.758 453.972 273.603L453.445 268.385C453.445 268.245 453.221 268.118 452.997 268.118H451.863C451.639 268.118 451.454 268.245 451.481 268.385L452.008 273.603C452.074 273.758 452.219 273.885 452.456 273.885Z" fill="#CCA8D2"/>
<g style="mix-blend-mode:multiply">
<path d="M480.345 512.073C460.844 512.073 445.036 510.852 445.036 509.345C445.036 507.838 460.844 506.616 480.345 506.616C499.846 506.616 515.654 507.838 515.654 509.345C515.654 510.852 499.846 512.073 480.345 512.073Z" fill="#F5F5F5"/>
</g>
<path d="M458.835 505.491C465.083 503.55 472.015 501.06 476.207 498.458C476.325 498.374 476.457 498.332 476.576 498.261V468.078H463.936C462.976 468.018 462.075 467.568 461.416 466.822C460.756 466.075 460.389 465.088 460.389 464.063C460.389 463.037 460.756 462.05 461.416 461.304C462.075 460.557 462.976 460.108 463.936 460.047H476.51V322.465H484.101V460.047H496.662C497.175 460.015 497.688 460.095 498.171 460.282C498.654 460.469 499.096 460.759 499.47 461.135C499.844 461.512 500.142 461.965 500.346 462.469C500.549 462.972 500.654 463.514 500.654 464.063C500.654 464.611 500.549 465.153 500.346 465.657C500.142 466.16 499.844 466.614 499.47 466.99C499.096 467.366 498.654 467.657 498.171 467.844C497.688 468.031 497.175 468.111 496.662 468.078H484.101V498.219C484.22 498.219 484.339 498.332 484.457 498.416C488.714 501.06 495.594 503.55 501.842 505.449C502.264 505.585 502.626 505.878 502.863 506.274C503.1 506.671 503.197 507.145 503.134 507.611C503.072 508.077 502.856 508.503 502.524 508.814C502.193 509.124 501.768 509.297 501.328 509.302H459.349C458.928 509.272 458.529 509.088 458.22 508.781C457.91 508.475 457.709 508.064 457.648 507.618C457.588 507.172 457.673 506.718 457.889 506.331C458.105 505.943 458.439 505.647 458.835 505.491Z" fill="#E0E0E0"/>
<path d="M456.898 308.456H503.766C507.537 308.456 510.593 311.718 510.593 315.742V330.608C510.593 334.632 507.537 337.894 503.766 337.894H456.898C453.127 337.894 450.071 334.632 450.071 330.608V315.742C450.071 311.718 453.127 308.456 456.898 308.456Z" fill="#CCA8D2"/>
<path d="M504.201 337.908V340.468C504.201 342.578 502.053 344.294 499.417 344.294H461.195C458.559 344.294 456.41 342.578 456.41 340.468V337.908H504.201Z" fill="#CCA8D2"/>
<path opacity="0.3" d="M504.201 337.908V340.468C504.201 342.578 502.053 344.294 499.417 344.294H461.195C458.559 344.294 456.41 342.578 456.41 340.468V337.908H504.201Z" fill="white"/>
</svg>
